<svg width="40" height="30" viewBox="0 0 40 30" fill="none" xmlns="http://www.w3.org/2000/svg">
<path d="M38.1827 30H12.7364C11.7345 30 10.9182 29.16 10.9182 28.1259V26.2519C10.9182 25.9088 11.1009 25.5938 11.3927 25.4288L20.2891 20.4253C17.3091 17.1019 17.2764 12.4003 17.2764 12.1828L17.2818 6.56437C17.2818 6.51187 17.2864 6.46031 17.2945 6.40969C17.9209 2.57906 22.0218 0.0065625 25.4591 0.0065625H25.4627C28.8982 0.0065625 32.9982 2.57719 33.6264 6.40688C33.6345 6.45844 33.6391 6.51094 33.6391 6.5625L33.6418 12.1819C33.6418 12.3984 33.6091 17.1 30.63 20.4234L39.5264 25.4269C39.8182 25.5919 40 25.9069 40 26.25V28.1259C40 29.16 39.1845 30 38.1827 30ZM28.66 21.45C28.3936 21.3 28.2173 21.0234 28.1891 20.7122C28.1618 20.4009 28.2873 20.0962 28.5218 19.8994C31.7918 17.1656 31.8245 12.2325 31.8245 12.1828L31.8209 6.64594C31.31 3.83344 28.0755 1.87969 25.4591 1.87969C22.8418 1.88063 19.6091 3.83531 19.1 6.64781L19.0945 12.1847C19.0945 12.2325 19.1445 17.1816 22.3964 19.9013C22.6318 20.0981 22.7573 20.4028 22.7291 20.7141C22.7018 21.0253 22.5255 21.3019 22.2591 21.4519L12.7364 26.8088V28.1259H38.1809L38.1818 26.8078L28.66 21.45ZM16.9518 2.3625C16.1491 2.04094 15.3164 1.87219 14.5409 1.87219C11.9236 1.87312 8.69 3.82781 8.18091 6.64031L8.17545 12.1772C8.17545 12.2259 8.22455 17.1741 11.4773 19.8937C11.7127 20.0906 11.8382 20.3953 11.8109 20.7066C11.7827 21.0178 11.6064 21.2944 11.34 21.4444L1.81727 26.8012V28.1184H8.18C8.68182 28.1184 9.08818 28.5384 9.08818 29.0559C9.08818 29.5734 8.68182 29.9934 8.18 29.9934H1.81727C0.815455 29.9934 0 29.1525 0 28.1184V26.2444C0 25.9022 0.181818 25.5863 0.473636 25.4222L9.37 20.4178C6.39091 17.0944 6.35727 12.3928 6.35727 12.1762L6.36273 6.55687C6.36273 6.50531 6.36727 6.45281 6.37545 6.40219C7.00182 2.5725 11.1027 0 14.5409 0C14.5445 0 14.55 0 14.5545 0C15.5464 0 16.6018 0.212813 17.6082 0.615C18.0773 0.8025 18.3091 1.34531 18.1282 1.82719C17.9455 2.31 17.4164 2.55 16.9518 2.3625Z" fill="white"/>
</svg>
