<svg width="30" height="30" viewBox="0 0 30 30" fill="none" xmlns="http://www.w3.org/2000/svg">
<path d="M16.9213 1.26848L17.297 0.670203L16.9213 1.26849C18.843 2.47536 21.6724 4.46143 24.1978 7.04334C26.9391 9.84634 28.1826 12.0016 28.7652 14.07C29.3004 15.97 29.2959 17.8381 29.2902 20.2119C29.2896 20.4621 29.289 20.7179 29.289 20.98C29.289 23.4876 29.0967 25.6011 28.8937 27.1347C28.7262 28.399 27.6486 29.2917 26.3598 29.2917H3.6401C2.35125 29.2917 1.27372 28.399 1.10625 27.1345L1.10625 27.1344C0.903139 25.6011 0.711019 23.4876 0.711019 20.98C0.711019 20.7178 0.710401 20.4618 0.709796 20.2114C0.704063 17.8378 0.699552 15.9699 1.23471 14.07C1.81735 12.0016 3.06078 9.84635 5.80222 7.04335C8.32744 4.46144 11.1569 2.47536 13.0786 1.26849L13.0786 1.26848C14.2679 0.52154 15.7319 0.52154 16.9213 1.26848Z" stroke="white" stroke-width="1.41655" stroke-linecap="round" stroke-linejoin="round"/>
</svg>
