<svg width="30" height="30" viewBox="0 0 30 30" fill="none" xmlns="http://www.w3.org/2000/svg">
<path d="M8.37937 13.3333H0.931042C0.684114 13.3333 0.4473 13.443 0.272696 13.6383C0.0980918 13.8337 0 14.0987 0 14.3749V29.9999H9.31042V14.3749C9.31042 14.0987 9.21232 13.8337 9.03772 13.6383C8.86312 13.443 8.6263 13.3333 8.37937 13.3333Z" fill="#1A1A1A"/>
<path d="M19.0001 0H11C10.7348 0 10.4804 0.0987722 10.2929 0.274588C10.1054 0.450403 10 0.68886 10 0.9375V30H20.0001V0.9375C20.0001 0.68886 19.8947 0.450403 19.7072 0.274588C19.5196 0.0987722 19.2653 0 19.0001 0Z" fill="#1A1A1A"/>
<path d="M29.0688 5.55566H21.6205C21.3736 5.55566 21.1368 5.66297 20.9621 5.85398C20.7875 6.04499 20.6895 6.30405 20.6895 6.57418V30.0001H29.9999V6.57418C29.9999 6.30405 29.9018 6.04499 29.7272 5.85398C29.5526 5.66297 29.3158 5.55566 29.0688 5.55566Z" fill="#1A1A1A"/>
</svg>
