<svg width="128" height="155" viewBox="0 0 128 155" fill="none" xmlns="http://www.w3.org/2000/svg">
<path d="M17.6372 62.2815C17.6372 48.4625 28.8433 37.2609 42.6679 37.2609C56.4925 37.2609 67.6986 48.4625 67.6986 62.2815C67.6986 76.1003 56.4925 87.3022 42.6679 87.3022C28.8433 87.3022 17.6372 76.1005 17.6372 62.2815ZM53.2889 89.0083H32.0483C14.3772 89.0083 0 103.379 0 121.041V147.013L0.066547 147.418L1.85993 147.978C18.7211 153.243 33.375 155 45.4344 155C68.9883 155 82.6387 148.286 83.484 147.86L85.159 147.01L85.3355 147.011V121.041C85.3355 103.379 70.9585 89.0083 53.2889 89.0083ZM85.3355 50.0404C99.1592 50.0404 110.366 38.8388 110.366 25.0198C110.366 11.2016 99.1595 0 85.3355 0C71.5121 0 60.3048 11.2016 60.3048 25.0198C60.3051 38.8388 71.5121 50.0404 85.3355 50.0404ZM95.9557 51.7462H74.7153C74.2086 51.7462 73.7152 51.7995 73.2152 51.8238C75.1355 55.853 76.2437 60.3431 76.2437 65.0979C76.2437 73.8721 72.5619 81.7858 66.6784 87.4301C80.4454 91.5236 90.9691 103.211 93.3643 117.612C113.666 116.726 125.37 110.991 126.149 110.598L127.823 109.748L128 109.752V83.7814C128.003 66.1186 113.626 51.7462 95.9557 51.7462Z" fill="#21D589"/>
</svg>
